<mxfile host="app.diagrams.net" agent="Mozilla/5.0 (Macintosh; Intel Mac OS X 10.15; rv:133.0) Gecko/20100101 Firefox/133.0" version="25.0.3">
  <diagram name="Page-1" id="c37626ed-c26b-45fb-9056-f9ebc6bb27b6">
    <mxGraphModel dx="2120" dy="2041" grid="1" gridSize="10" guides="1" tooltips="1" connect="1" arrows="1" fold="1" page="1" pageScale="1" pageWidth="1100" pageHeight="850" background="none" math="0" shadow="0">
      <root>
        <mxCell id="0" />
        <mxCell id="1" parent="0" />
        <mxCell id="3mnZNw0ZQHAIM2PLa0D6-8" value="Lab Environment" style="whiteSpace=wrap;html=1;rounded=0;shadow=0;comic=0;strokeWidth=1;fontFamily=Verdana;fontSize=14;fillColor=#f5f5f5;strokeColor=none;fontStyle=1;verticalAlign=top;" vertex="1" parent="1">
          <mxGeometry x="885" y="559.9999999999999" width="432" height="587" as="geometry" />
        </mxCell>
        <mxCell id="1c7a67bf8fd3230f-14" value="Cloud" style="ellipse;shape=cloud;whiteSpace=wrap;html=1;rounded=0;shadow=0;comic=0;strokeWidth=1;fontFamily=Verdana;fontSize=12;" parent="1" vertex="1">
          <mxGeometry x="505" y="229" width="120" height="80" as="geometry" />
        </mxCell>
        <mxCell id="1c7a67bf8fd3230f-15" value="Internet" style="ellipse;shape=cloud;whiteSpace=wrap;html=1;rounded=0;shadow=0;comic=0;strokeWidth=1;fontFamily=Verdana;fontSize=12;" parent="1" vertex="1">
          <mxGeometry x="975.5" y="-50" width="250" height="210" as="geometry" />
        </mxCell>
        <mxCell id="3mnZNw0ZQHAIM2PLa0D6-5" value="" style="sketch=0;points=[[0.015,0.015,0],[0.985,0.015,0],[0.985,0.985,0],[0.015,0.985,0],[0.25,0,0],[0.5,0,0],[0.75,0,0],[1,0.25,0],[1,0.5,0],[1,0.75,0],[0.75,1,0],[0.5,1,0],[0.25,1,0],[0,0.75,0],[0,0.5,0],[0,0.25,0]];verticalLabelPosition=bottom;html=1;verticalAlign=top;aspect=fixed;align=center;pointerEvents=1;shape=mxgraph.cisco19.rect;prIcon=firewall;fillColor=#FAFAFA;strokeColor=#005073;" vertex="1" parent="1">
          <mxGeometry x="1049.7" y="722.42" width="102.59" height="80.15" as="geometry" />
        </mxCell>
        <mxCell id="3mnZNw0ZQHAIM2PLa0D6-7" value="" style="shape=mxgraph.cisco.misc.route_switch_processor;html=1;dashed=0;fillColor=#036897;strokeColor=#ffffff;strokeWidth=2;verticalLabelPosition=bottom;verticalAlign=top;rounded=0;shadow=0;comic=0;fontFamily=Verdana;fontSize=12;" vertex="1" parent="1">
          <mxGeometry x="1071" y="860" width="59" height="76" as="geometry" />
        </mxCell>
        <mxCell id="3mnZNw0ZQHAIM2PLa0D6-9" value="Home Network" style="whiteSpace=wrap;html=1;rounded=0;shadow=0;comic=0;strokeWidth=1;fontFamily=Verdana;fontSize=14;fillColor=#f5f5f5;strokeColor=none;fontStyle=1;verticalAlign=top;" vertex="1" parent="1">
          <mxGeometry x="866" y="200" width="470" height="330" as="geometry" />
        </mxCell>
        <mxCell id="3mnZNw0ZQHAIM2PLa0D6-11" value="" style="shape=mxgraph.cisco.security.router_firewall;html=1;pointerEvents=1;dashed=0;fillColor=#036897;strokeColor=#ffffff;strokeWidth=2;verticalLabelPosition=bottom;verticalAlign=top;align=center;outlineConnect=0;" vertex="1" parent="1">
          <mxGeometry x="1062" y="238" width="78" height="62" as="geometry" />
        </mxCell>
        <mxCell id="3mnZNw0ZQHAIM2PLa0D6-12" value="" style="sketch=0;points=[[0.015,0.015,0],[0.985,0.015,0],[0.985,0.985,0],[0.015,0.985,0],[0.25,0,0],[0.5,0,0],[0.75,0,0],[1,0.25,0],[1,0.5,0],[1,0.75,0],[0.75,1,0],[0.5,1,0],[0.25,1,0],[0,0.75,0],[0,0.5,0],[0,0.25,0]];verticalLabelPosition=bottom;html=1;verticalAlign=top;aspect=fixed;align=center;pointerEvents=1;shape=mxgraph.cisco19.rect;prIcon=l2_switch;fillColor=#FAFAFA;strokeColor=#005073;" vertex="1" parent="1">
          <mxGeometry x="1071" y="335" width="60" height="60" as="geometry" />
        </mxCell>
        <mxCell id="3mnZNw0ZQHAIM2PLa0D6-13" style="edgeStyle=none;html=1;labelBackgroundColor=none;startFill=0;endArrow=none;endFill=0;strokeWidth=2;fontFamily=Verdana;fontSize=12;" edge="1" parent="1" source="1c7a67bf8fd3230f-15" target="3mnZNw0ZQHAIM2PLa0D6-11">
          <mxGeometry relative="1" as="geometry">
            <mxPoint x="1101" y="160" as="sourcePoint" />
            <mxPoint x="1537.662619499451" y="493.43917843518284" as="targetPoint" />
          </mxGeometry>
        </mxCell>
        <mxCell id="3mnZNw0ZQHAIM2PLa0D6-15" style="edgeStyle=none;html=1;labelBackgroundColor=none;startFill=0;endArrow=none;endFill=0;strokeWidth=2;fontFamily=Verdana;fontSize=12;" edge="1" parent="1" source="3mnZNw0ZQHAIM2PLa0D6-11" target="1c7a67bf8fd3230f-14">
          <mxGeometry relative="1" as="geometry">
            <mxPoint x="1380" y="459.99999999999994" as="sourcePoint" />
            <mxPoint x="680" y="560" as="targetPoint" />
          </mxGeometry>
        </mxCell>
        <mxCell id="3mnZNw0ZQHAIM2PLa0D6-17" style="edgeStyle=none;html=1;labelBackgroundColor=none;startFill=0;endArrow=none;endFill=0;strokeWidth=2;fontFamily=Verdana;fontSize=12;" edge="1" parent="1" source="3mnZNw0ZQHAIM2PLa0D6-18" target="1c7a67bf8fd3230f-13">
          <mxGeometry relative="1" as="geometry">
            <mxPoint x="1460" y="640" as="sourcePoint" />
            <mxPoint x="1577.662619499451" y="733.4391784351828" as="targetPoint" />
          </mxGeometry>
        </mxCell>
        <mxCell id="3mnZNw0ZQHAIM2PLa0D6-18" value="" style="pointerEvents=1;shadow=0;dashed=0;html=1;strokeColor=none;fillColor=#4495D1;labelPosition=center;verticalLabelPosition=bottom;verticalAlign=top;align=center;outlineConnect=0;shape=mxgraph.veeam.2d.esx_esxi;" vertex="1" parent="1">
          <mxGeometry x="1084.4" y="429.2" width="33.2" height="50.8" as="geometry" />
        </mxCell>
        <mxCell id="1c7a67bf8fd3230f-13" value="LAN" style="ellipse;shape=cloud;whiteSpace=wrap;html=1;rounded=0;shadow=0;comic=0;strokeWidth=1;fontFamily=Verdana;fontSize=12;" parent="1" vertex="1">
          <mxGeometry x="1041" y="620" width="120" height="80" as="geometry" />
        </mxCell>
        <mxCell id="3mnZNw0ZQHAIM2PLa0D6-28" value="" style="points=[[0.03,0.36,0],[0.18,0,0],[0.5,0.34,0],[0.82,0,0],[0.97,0.36,0],[1,0.67,0],[0.975,0.975,0],[0.5,1,0],[0.025,0.975,0],[0,0.67,0]];verticalLabelPosition=bottom;sketch=0;html=1;verticalAlign=top;aspect=fixed;align=center;pointerEvents=1;shape=mxgraph.cisco19.wireless_access_point;fillColor=#005073;strokeColor=none;" vertex="1" parent="1">
          <mxGeometry x="1076" y="980" width="50" height="50" as="geometry" />
        </mxCell>
        <mxCell id="3mnZNw0ZQHAIM2PLa0D6-29" value="" style="points=[[0.03,0.36,0],[0.18,0,0],[0.5,0.34,0],[0.82,0,0],[0.97,0.36,0],[1,0.67,0],[0.975,0.975,0],[0.5,1,0],[0.025,0.975,0],[0,0.67,0]];verticalLabelPosition=bottom;sketch=0;html=1;verticalAlign=top;aspect=fixed;align=center;pointerEvents=1;shape=mxgraph.cisco19.wireless_access_point;fillColor=#005073;strokeColor=none;" vertex="1" parent="1">
          <mxGeometry x="960" y="980" width="50" height="50" as="geometry" />
        </mxCell>
        <mxCell id="3mnZNw0ZQHAIM2PLa0D6-30" value="" style="points=[[0.03,0.36,0],[0.18,0,0],[0.5,0.34,0],[0.82,0,0],[0.97,0.36,0],[1,0.67,0],[0.975,0.975,0],[0.5,1,0],[0.025,0.975,0],[0,0.67,0]];verticalLabelPosition=bottom;sketch=0;html=1;verticalAlign=top;aspect=fixed;align=center;pointerEvents=1;shape=mxgraph.cisco19.wireless_access_point;fillColor=#005073;strokeColor=none;" vertex="1" parent="1">
          <mxGeometry x="1190" y="980" width="50" height="50" as="geometry" />
        </mxCell>
        <mxCell id="3mnZNw0ZQHAIM2PLa0D6-31" style="edgeStyle=none;html=1;labelBackgroundColor=none;startFill=0;endArrow=none;endFill=0;strokeWidth=2;fontFamily=Verdana;fontSize=12;" edge="1" parent="1" source="3mnZNw0ZQHAIM2PLa0D6-7" target="3mnZNw0ZQHAIM2PLa0D6-30">
          <mxGeometry relative="1" as="geometry">
            <mxPoint x="1631" y="990" as="sourcePoint" />
            <mxPoint x="1520" y="1020" as="targetPoint" />
          </mxGeometry>
        </mxCell>
        <mxCell id="3mnZNw0ZQHAIM2PLa0D6-34" style="edgeStyle=none;html=1;labelBackgroundColor=none;startFill=0;endArrow=none;endFill=0;strokeWidth=2;fontFamily=Verdana;fontSize=12;" edge="1" parent="1" source="3mnZNw0ZQHAIM2PLa0D6-11" target="3mnZNw0ZQHAIM2PLa0D6-12">
          <mxGeometry relative="1" as="geometry">
            <mxPoint x="1550" y="386.55999999999995" as="sourcePoint" />
            <mxPoint x="1101" y="350" as="targetPoint" />
          </mxGeometry>
        </mxCell>
        <mxCell id="3mnZNw0ZQHAIM2PLa0D6-35" style="edgeStyle=none;html=1;labelBackgroundColor=none;startFill=0;endArrow=none;endFill=0;strokeWidth=2;fontFamily=Verdana;fontSize=12;" edge="1" parent="1" source="3mnZNw0ZQHAIM2PLa0D6-12" target="3mnZNw0ZQHAIM2PLa0D6-18">
          <mxGeometry relative="1" as="geometry">
            <mxPoint x="1630" y="550" as="sourcePoint" />
            <mxPoint x="2007.662619499451" y="979.9991784351828" as="targetPoint" />
          </mxGeometry>
        </mxCell>
        <mxCell id="3mnZNw0ZQHAIM2PLa0D6-36" style="edgeStyle=none;html=1;labelBackgroundColor=none;startFill=0;endArrow=none;endFill=0;strokeWidth=2;fontFamily=Verdana;fontSize=12;" edge="1" parent="1" source="3mnZNw0ZQHAIM2PLa0D6-5" target="1c7a67bf8fd3230f-13">
          <mxGeometry relative="1" as="geometry">
            <mxPoint x="1890" y="816.56" as="sourcePoint" />
            <mxPoint x="2007.662619499451" y="909.9991784351828" as="targetPoint" />
          </mxGeometry>
        </mxCell>
        <mxCell id="3mnZNw0ZQHAIM2PLa0D6-37" style="edgeStyle=none;html=1;labelBackgroundColor=none;startFill=0;endArrow=none;endFill=0;strokeWidth=2;fontFamily=Verdana;fontSize=12;" edge="1" parent="1" source="3mnZNw0ZQHAIM2PLa0D6-7" target="3mnZNw0ZQHAIM2PLa0D6-28">
          <mxGeometry relative="1" as="geometry">
            <mxPoint x="1890" y="816.56" as="sourcePoint" />
            <mxPoint x="1620" y="970" as="targetPoint" />
          </mxGeometry>
        </mxCell>
        <mxCell id="3mnZNw0ZQHAIM2PLa0D6-38" style="edgeStyle=none;html=1;labelBackgroundColor=none;startFill=0;endArrow=none;endFill=0;strokeWidth=2;fontFamily=Verdana;fontSize=12;" edge="1" parent="1" source="3mnZNw0ZQHAIM2PLa0D6-7" target="3mnZNw0ZQHAIM2PLa0D6-29">
          <mxGeometry relative="1" as="geometry">
            <mxPoint x="1890" y="816.56" as="sourcePoint" />
            <mxPoint x="2007.662619499451" y="909.9991784351828" as="targetPoint" />
          </mxGeometry>
        </mxCell>
        <mxCell id="3mnZNw0ZQHAIM2PLa0D6-43" style="edgeStyle=none;html=1;labelBackgroundColor=none;startFill=0;endArrow=none;endFill=0;strokeWidth=2;fontFamily=Verdana;fontSize=12;" edge="1" parent="1" source="3mnZNw0ZQHAIM2PLa0D6-5" target="3mnZNw0ZQHAIM2PLa0D6-7">
          <mxGeometry relative="1" as="geometry">
            <mxPoint x="680" y="920" as="sourcePoint" />
            <mxPoint x="760" y="1050" as="targetPoint" />
          </mxGeometry>
        </mxCell>
        <mxCell id="3mnZNw0ZQHAIM2PLa0D6-46" value="Web Server" style="whiteSpace=wrap;html=1;rounded=0;shadow=0;comic=0;strokeWidth=1;fontFamily=Verdana;fontSize=14;fillColor=#f5f5f5;strokeColor=none;fontStyle=1;verticalAlign=top;" vertex="1" parent="1">
          <mxGeometry x="395" y="640" width="340" height="220" as="geometry" />
        </mxCell>
        <mxCell id="3mnZNw0ZQHAIM2PLa0D6-47" value="" style="sketch=0;pointerEvents=1;shadow=0;dashed=0;html=1;strokeColor=none;labelPosition=center;verticalLabelPosition=bottom;verticalAlign=top;outlineConnect=0;align=center;shape=mxgraph.office.servers.virtual_web_server;fillColor=#2072B8;" vertex="1" parent="1">
          <mxGeometry x="543" y="735" width="44" height="55" as="geometry" />
        </mxCell>
        <mxCell id="3mnZNw0ZQHAIM2PLa0D6-48" style="edgeStyle=none;html=1;labelBackgroundColor=none;startFill=0;endArrow=none;endFill=0;strokeWidth=2;fontFamily=Verdana;fontSize=12;" edge="1" parent="1" source="3mnZNw0ZQHAIM2PLa0D6-47" target="3mnZNw0ZQHAIM2PLa0D6-5">
          <mxGeometry relative="1" as="geometry">
            <mxPoint x="610" y="407" as="sourcePoint" />
            <mxPoint x="1540" y="590" as="targetPoint" />
          </mxGeometry>
        </mxCell>
        <mxCell id="3mnZNw0ZQHAIM2PLa0D6-49" style="edgeStyle=none;html=1;labelBackgroundColor=none;startFill=0;endArrow=none;endFill=0;strokeWidth=2;fontFamily=Verdana;fontSize=12;" edge="1" parent="1" source="1c7a67bf8fd3230f-14" target="3mnZNw0ZQHAIM2PLa0D6-47">
          <mxGeometry relative="1" as="geometry">
            <mxPoint x="610" y="407" as="sourcePoint" />
            <mxPoint x="1068" y="830" as="targetPoint" />
          </mxGeometry>
        </mxCell>
      </root>
    </mxGraphModel>
  </diagram>
</mxfile>
